<?xml version="1.0" standalone="no"?>
<!DOCTYPE svg PUBLIC "-//W3C//DTD SVG 20010904//EN"
 "http://www.w3.org/TR/2001/REC-SVG-20010904/DTD/svg10.dtd">
<svg version="1.0" xmlns="http://www.w3.org/2000/svg"
 width="500.000000pt" height="500.000000pt" viewBox="0 0 500.000000 500.000000"
 preserveAspectRatio="xMidYMid meet">

<g transform="translate(0.000000,500.000000) scale(0.100000,-0.100000)"
fill="#000000" stroke="none">
<path d="M1257 3876 c-99 -36 -132 -128 -75 -209 24 -33 60 -53 113 -62 67
-11 95 -26 102 -53 8 -33 -18 -52 -74 -52 -35 0 -48 6 -77 35 -39 39 -65 44
-89 17 -23 -25 -21 -48 4 -83 59 -83 208 -100 296 -33 64 49 68 151 9 210 -30
30 -47 37 -150 60 -79 18 -69 77 14 77 34 0 47 -6 70 -32 66 -71 135 -9 78 71
-42 60 -139 83 -221 54z"/>
<path d="M2066 3858 c-13 -19 -16 -57 -16 -218 0 -161 3 -199 16 -218 14 -21
21 -22 168 -22 105 0 156 4 164 12 16 16 15 63 -1 76 -7 6 -62 13 -123 14
l-109 3 -3 43 -3 42 80 0 c87 0 111 12 111 55 0 39 -35 55 -117 55 l-73 0 0
40 0 40 113 0 c122 0 137 6 137 50 0 46 -13 50 -176 50 -147 0 -154 -1 -168
-22z"/>
<path d="M2960 3861 c-6 -12 -10 -102 -10 -224 0 -185 2 -205 18 -220 10 -10
27 -17 38 -17 41 0 49 16 54 112 l5 93 48 -92 c46 -90 48 -93 82 -93 34 0 36
3 82 93 l48 92 5 -93 c5 -98 12 -112 57 -112 47 0 53 28 53 247 0 225 -3 237
-64 231 -29 -3 -35 -11 -101 -145 -38 -78 -73 -145 -77 -149 -4 -3 -41 62 -82
145 -76 151 -76 151 -111 151 -24 0 -37 -6 -45 -19z"/>
<path d="M4132 3868 c-5 -7 -47 -102 -92 -211 -88 -213 -93 -241 -43 -253 34
-9 54 4 76 49 l17 37 83 0 83 0 19 -42 c16 -34 26 -44 48 -46 36 -4 57 13 57
47 0 29 -145 386 -168 414 -17 20 -65 23 -80 5z m77 -265 c1 -8 -12 -13 -34
-13 -40 0 -43 9 -19 66 l17 39 18 -40 c9 -22 18 -46 18 -52z"/>
<path d="M1055 3135 c-30 -29 -33 -73 -6 -106 10 -13 46 -32 82 -43 72 -24 97
-53 85 -100 -15 -59 -126 -68 -168 -14 -19 25 -38 17 -22 -10 19 -31 76 -53
124 -49 57 6 90 41 90 96 0 51 -28 77 -102 98 -66 19 -94 47 -84 86 6 25 43
47 79 47 12 0 37 -9 56 -21 43 -26 55 -14 16 17 -42 34 -116 34 -150 -1z"/>
<path d="M1590 2990 c0 -107 4 -170 10 -170 6 0 10 34 10 83 0 75 2 86 24 106
16 15 37 23 61 23 24 0 45 -8 61 -23 22 -20 24 -31 24 -107 0 -62 3 -83 13
-80 15 6 20 109 6 161 -6 22 -21 44 -36 55 -37 23 -105 22 -132 -2 l-21 -19 0
71 c0 41 -4 72 -10 72 -6 0 -10 -63 -10 -170z"/>
<path d="M2500 2990 l0 -170 84 0 c74 0 88 3 111 23 15 13 28 37 31 58 5 30 1
41 -24 70 -30 34 -30 34 -11 58 27 33 24 68 -10 102 -27 27 -35 29 -105 29
l-76 0 0 -170z m171 121 c25 -31 24 -47 -6 -77 -22 -22 -32 -25 -83 -22 l-57
3 -3 49 c-5 75 -1 79 70 74 48 -4 65 -9 79 -27z m-8 -132 c30 -16 37 -28 37
-66 0 -54 -28 -73 -110 -73 l-70 0 0 75 0 75 61 0 c33 0 70 -5 82 -11z"/>
<path d="M2200 3091 c0 -34 -3 -41 -20 -41 -11 0 -20 -4 -20 -10 0 -5 9 -10
19 -10 17 0 19 -9 22 -84 5 -99 21 -126 76 -126 20 0 32 4 28 10 -3 6 -14 10
-24 10 -36 0 -51 23 -52 80 -2 113 -3 110 37 110 21 0 33 4 29 10 -3 6 -19 10
-36 10 -16 0 -29 6 -30 13 -1 6 -2 23 -2 36 -3 44 -27 37 -27 -8z"/>
<path d="M1380 3053 c-31 -12 -70 -58 -76 -90 -19 -99 70 -177 160 -139 20 8
36 20 36 25 0 14 -13 14 -27 0 -7 -7 -31 -12 -54 -12 -34 0 -47 6 -66 27 -13
15 -23 36 -23 47 0 17 8 19 95 19 l95 0 0 30 c0 58 -85 115 -140 93z m98 -49
c41 -46 31 -54 -63 -54 -91 0 -99 5 -69 48 33 48 92 50 132 6z"/>
<path d="M1943 3046 c-39 -18 -73 -70 -73 -111 0 -98 129 -159 198 -94 l22 20
0 -21 c0 -11 7 -20 15 -20 20 0 21 117 1 165 -26 60 -101 89 -163 61z m80 -15
c42 -16 67 -51 67 -93 0 -78 -64 -123 -133 -94 -41 17 -59 45 -59 91 0 45 18
74 55 90 39 17 40 17 70 6z"/>
<path d="M2854 3051 c-59 -25 -87 -107 -58 -168 27 -54 82 -80 135 -64 38 11
56 27 45 38 -3 3 -11 1 -18 -4 -52 -41 -148 -1 -148 61 0 13 15 16 95 16 l95
0 0 30 c0 62 -87 115 -146 91z m104 -47 c41 -46 31 -54 -63 -54 -91 0 -99 5
-69 48 33 48 92 50 132 6z"/>
<path d="M3140 3053 c-8 -3 -23 -12 -32 -21 -16 -14 -18 -13 -18 1 0 10 -4 17
-10 17 -6 0 -10 -45 -10 -115 0 -70 4 -115 10 -115 6 0 10 35 10 85 0 72 3 88
20 105 11 11 28 21 38 22 9 0 23 2 29 2 7 1 14 6 15 11 3 11 -30 17 -52 8z"/>
<path d="M3301 3048 c-33 -18 -45 -40 -38 -70 7 -25 31 -40 92 -53 55 -12 73
-48 39 -76 -23 -19 -90 -15 -113 5 -11 10 -22 13 -25 8 -9 -15 25 -40 64 -47
45 -8 84 7 106 40 16 25 16 27 -3 53 -14 18 -35 30 -66 37 -79 17 -101 63 -41
85 29 12 60 5 86 -17 9 -8 19 -10 22 -5 9 15 -29 42 -65 48 -19 2 -45 -1 -58
-8z"/>
<path d="M3552 3043 c-84 -41 -83 -176 2 -217 47 -22 77 -20 120 9 34 23 36
23 36 5 0 -11 5 -20 10 -20 6 0 10 33 10 79 0 86 -15 118 -70 146 -37 19 -67
19 -108 -2z m106 -23 c87 -53 52 -185 -50 -185 -80 0 -126 96 -77 159 38 48
77 56 127 26z"/>
<path d="M3850 3043 c-17 -12 -25 -13 -28 -5 -2 7 -8 12 -13 12 -5 0 -9 -52
-9 -115 0 -133 16 -156 21 -31 5 98 21 126 75 126 50 0 64 -28 64 -127 0 -67
3 -83 15 -83 12 0 15 16 15 88 0 100 12 122 68 122 48 0 62 -29 62 -127 0 -70
3 -83 16 -83 14 0 16 12 12 88 -5 95 -17 125 -60 143 -34 14 -71 5 -97 -22
-16 -17 -20 -18 -28 -6 -10 18 -46 37 -70 37 -10 0 -29 -8 -43 -17z"/>
<path d="M4283 3046 c-39 -18 -73 -70 -73 -111 0 -43 35 -94 75 -111 45 -19
63 -18 108 5 29 15 37 16 37 5 0 -8 7 -14 15 -14 12 0 15 13 14 63 0 76 -16
124 -49 149 -35 25 -88 31 -127 14z m85 -17 c39 -13 62 -48 62 -94 0 -75 -65
-120 -133 -91 -41 17 -59 45 -59 91 0 45 18 74 55 90 39 17 37 17 75 4z"/>
</g>
</svg>
